# xmcd
# 
# Track frame offsets:
#     150
#     34292
#     60905
#     85662
#     114137
#     146855
# 
# Disc length: 2352
# 
# Revision: 1
# Processed by: cddbd v1.5.2PL0 Copyright (c) Steve Scherf et al.
# Submitted via: fre:ac v1.0.27
# 
DISCID=45092e06
DTITLE=Grover Washington, Jr. - Winelight
DYEAR=1987
DGENRE=Blues
TTITLE0=Grover Washington, Jr. - Winelight
TTITLE1=Grover Washington, Jr. - Let It Flow (For "Dr. J")
TTITLE2=Grover Washington, Jr. - In the Name of Love
TTITLE3=Grover Washington, Jr. - Take Me There
TTITLE4=Grover Washington, Jr. feat. Bill Withers - Just the Two of Us
TTITLE5=Grover Washington, Jr. - Make Me a Memory (Sad Samba)
EXTD=
EXTT0=
EXTT1=
EXTT2=
EXTT3=
EXTT4=
EXTT5=
PLAYORDER=
